<svg xmlns="http://www.w3.org/2000/svg" viewBox="0 0 1094 1094">
  <path fill="#D63900"
    d="M208.59 32.1l0 680.15c0,160.7 130.74,301.42 326.39,379.03 7.9,3.14 15.78,3.14 23.68,0 195.65,-77.62 326.39,-218.33 326.39,-379.03l0 -680.15c0,-17.68 -14.42,-32.1 -32.1,-32.1l-612.26 0c-17.68,0 -32.1,14.42 -32.1,32.1z" />
  <path fill="#FFF8F0"
    d="M573.58 667.3l0 102.62c0,14.78 -11.98,26.76 -26.76,26.76 -14.78,0 -26.76,-11.98 -26.76,-26.76l0 -102.62c-38.01,-5.78 -72.04,-23.7 -98.01,-49.67 -4.57,-4.57 -8.89,-9.39 -12.94,-14.44l-1.97 1.14c-12.76,7.39 -29.09,3.03 -36.47,-9.72 -7.39,-12.76 -3.03,-29.09 9.72,-36.47l1.99 -1.15c-7.75,-19.87 -12.01,-41.5 -12.01,-64.12 0,-22.62 4.26,-44.24 12.01,-64.12l-1.99 -1.15c-12.76,-7.39 -17.11,-23.72 -9.72,-36.47 7.39,-12.76 23.72,-17.11 36.47,-9.72l1.97 1.14c4.05,-5.05 8.37,-9.87 12.94,-14.44 25.97,-25.97 60,-43.88 98.01,-49.67l0 -102.62c0,-14.78 11.98,-26.76 26.76,-26.76 14.78,0 26.76,11.98 26.76,26.76l0 102.62c38.01,5.78 72.04,23.7 98.01,49.67 4.57,4.57 8.89,9.39 12.94,14.44l1.97 -1.14c12.76,-7.39 29.09,-3.03 36.47,9.72 7.39,12.76 3.03,29.09 -9.72,36.47l-1.99 1.15c7.76,19.87 12.01,41.5 12.01,64.12 0,22.62 -4.26,44.24 -12.01,64.12l1.99 1.15c12.76,7.39 17.11,23.72 9.72,36.47 -7.39,12.76 -23.72,17.11 -36.47,9.72l-1.97 -1.14c-4.05,5.05 -8.37,9.87 -12.94,14.44 -25.97,25.97 -60,43.88 -98.01,49.67zm-26.76 -51.49c33.95,0 64.69,-13.76 86.93,-36 22.24,-22.24 36,-52.98 36,-86.93 0,-33.95 -13.76,-64.69 -36,-86.93 -22.24,-22.24 -52.98,-36 -86.93,-36 -33.95,0 -64.69,13.76 -86.93,36 -22.24,22.24 -36,52.98 -36,86.93 0,33.95 13.76,64.69 36,86.93 22.24,22.24 52.98,36 86.93,36z" />
</svg>